# xmcd
#
# Track frame offsets: 
#        150
#        12739
#        25410
#        36990
#        51625
#        65305
#        78937
#        92918
#        102387
#        115416
#        129196
#        144338
#        162269
#        176924
#        190449
#        204938
#        218068
#        231009
#        245233
#        257432
#
# Disc length: 3613 seconds
#
# Revision: 0
# Processed by: cddbd v1.5.2PL0 Copyright (c) Steve Scherf et al.
# Submitted via: ExactAudioCopy v0.95b4
#
DISCID=240e1b14
DTITLE=Helen Humes - Great Divas
DYEAR=1947
DGENRE=Blues
TTITLE0=Be Ba Ba Le Ba Boogie
TTITLE1=Jet Propelled Papa
TTITLE2=They Raided The Joint
TTITLE3=Blue And Sentimental
TTITLE4=I Just Refuse To Sing The Blues
TTITLE5=Jumpin' On Sugar Hill
TTITLE6=Mad About You
TTITLE7=Flippity Flop Flop
TTITLE8=Today I Sing The Blues
TTITLE9=He May Be Your Man
TTITLE10=Every Now And Then
TTITLE11=Unlucky Woman
TTITLE12=Blue Prelude
TTITLE13=It's Better To Give Than To Receive
TTITLE14=Please Let Me Forget
TTITLE15=He Don't Love Me Anymore
TTITLE16=See See Rider
TTITLE17=Pleasing Man Blues
TTITLE18=Central Avenue Boogie
TTITLE19=Married Man Blues
EXTD=
EXTT0=
EXTT1=
EXTT2=
EXTT3=
EXTT4=
EXTT5=
EXTT6=
EXTT7=
EXTT8=
EXTT9=
EXTT10=
EXTT11=
EXTT12=
EXTT13=
EXTT14=
EXTT15=
EXTT16=
EXTT17=
EXTT18=
EXTT19=
PLAYORDER=
